<mxfile host="app.diagrams.net" modified="2024-05-06T21:54:34.714Z" agent="Mozilla/5.0 (X11; Linux x86_64) AppleWebKit/537.36 (KHTML, like Gecko) Chrome/124.0.0.0 Safari/537.36" version="24.3.1" etag="jM3aJHGV1GzD-o5xKjzz" type="github">
  <diagram name="PÃ¡gina-1" id="how17dYmtc0pmDmi6kXH">
    <mxGraphModel>
      <root>
        <mxCell id="0" />
        <mxCell id="1" parent="0" />
      </root>
    </mxGraphModel>
  </diagram>
</mxfile>
